<svg width="32" height="32" viewBox="0 0 32 32" fill="none" xmlns="http://www.w3.org/2000/svg">
<path fill-rule="evenodd" clip-rule="evenodd" d="M16.9583 2.64282C19.9354 2.85338 22.6436 4.037 24.767 5.87763L26.0025 4.64213C26.1324 4.51225 26.3442 4.51225 26.4741 4.64213L27.3577 5.52575C27.4876 5.65557 27.4876 5.86763 27.3577 5.99738L26.1224 7.23275C27.9631 9.35613 29.1467 12.0645 29.3573 15.0416H31.104C31.2877 15.0416 31.4375 15.1914 31.4375 15.3751V16.6248C31.4375 16.8084 31.2876 16.9583 31.104 16.9583H29.3571C29.1465 19.9353 27.9629 22.6436 26.1222 24.7669L27.3577 26.0024C27.4876 26.1323 27.4876 26.3442 27.3577 26.4741L26.4741 27.3577C26.3443 27.4876 26.1322 27.4875 26.0025 27.3577L24.7671 26.1223C22.6437 27.963 19.9354 29.1466 16.9583 29.3572V31.1039C16.9583 31.2876 16.8084 31.4374 16.6248 31.4374H15.3751C15.1915 31.4374 15.0416 31.2875 15.0416 31.1039V29.357C12.0646 29.1464 9.35631 27.9628 7.23294 26.1222L5.99744 27.3577C5.86756 27.4876 5.65569 27.4876 5.52581 27.3577L4.64219 26.4741C4.51231 26.3443 4.51238 26.1322 4.64219 26.0024L5.87756 24.7671C4.03688 22.6437 2.85325 19.9353 2.64275 16.9582H0.896C0.712313 16.9582 0.5625 16.8084 0.5625 16.6247V15.3751C0.5625 15.1914 0.712438 15.0416 0.896 15.0416H2.64294C2.8535 12.0645 4.03712 9.35625 5.87775 7.23288L4.64225 5.99738C4.51238 5.8675 4.51238 5.65563 4.64225 5.52575L5.52588 4.64213C5.65569 4.51225 5.86775 4.51232 5.9975 4.64213L7.233 5.87763C9.35637 4.037 12.0646 2.85338 15.0417 2.64282V0.895878C15.0417 0.71219 15.1915 0.562378 15.3752 0.562378H16.6248C16.8084 0.562378 16.9583 0.712315 16.9583 0.895878V2.64282ZM16.0001 13.5379C14.8727 13.5379 13.9589 14.4516 13.9589 15.5791C13.9589 16.7064 14.8727 17.6203 16.0001 17.6203C17.1275 17.6203 18.0413 16.7064 18.0413 15.5791C18.0413 14.4516 17.1274 13.5379 16.0001 13.5379ZM16 9.673C12.5057 9.673 9.67313 12.5056 9.67313 15.9999C9.67313 17.7373 10.3737 19.311 11.5074 20.4544C12.1421 19.3702 13.1544 18.5387 14.3518 18.1352C12.7272 17.0854 12.4767 14.8016 13.8496 13.4286C15.0373 12.2409 16.9627 12.2409 18.1504 13.4286C19.5234 14.8016 19.2728 17.0854 17.6483 18.1352C18.8457 18.5387 19.8579 19.3702 20.4926 20.4544C21.6264 19.311 22.3269 17.7374 22.3269 15.9999C22.3269 12.5057 19.4942 9.673 16 9.673ZM19.7196 21.1179C19.4956 20.6938 19.2012 20.3118 18.8521 19.988C16.8095 18.0933 13.5661 18.6831 12.2804 21.118C14.495 22.7304 17.5051 22.7304 19.7196 21.1179ZM8.81669 7.46138L9.47894 6.79913C9.62537 6.65257 9.88387 6.73169 9.91138 6.94669L10.3054 10.0206C10.3266 10.1861 10.1861 10.3266 10.0206 10.3054L6.94669 9.91138C6.73169 9.88382 6.65256 9.62532 6.79919 9.47888L7.46138 8.81669L6.58656 7.94182C4.92481 9.88125 3.85194 12.3403 3.64531 15.0416H4.88287V14.1051C4.88281 13.8979 5.12156 13.7711 5.293 13.9036L7.74525 15.7986C7.87725 15.9006 7.87725 16.0993 7.74525 16.2013L5.29313 18.0963C5.12162 18.2289 4.88287 18.102 4.883 17.8948V16.9583H3.64556C3.85225 19.6596 4.925 22.1186 6.58675 24.058L7.46144 23.1833L6.79919 22.5211C6.65263 22.3746 6.73175 22.1161 6.94675 22.0886L10.0207 21.6946C10.1861 21.6734 10.3267 21.8139 10.3055 21.9794L9.91144 25.0533C9.88387 25.2683 9.62537 25.3474 9.47894 25.2008L8.81675 24.5386L7.94187 25.4134C9.88131 27.0752 12.3403 28.1481 15.0417 28.3547V27.1171H14.1051C13.8979 27.1172 13.7711 26.8784 13.9037 26.707L15.7986 24.2548C15.9006 24.1228 16.0994 24.1228 16.2014 24.2548L18.0963 26.707C18.2289 26.8785 18.102 27.1173 17.8948 27.1171H16.9583V28.3546C19.6597 28.1479 22.1186 27.0751 24.0581 25.4134L23.1834 24.5387L22.5211 25.2009C22.3747 25.3475 22.1162 25.2684 22.0887 25.0534L21.6946 21.9794C21.6734 21.814 21.8139 21.6734 21.9794 21.6946L25.0534 22.0887C25.2684 22.1162 25.3475 22.3748 25.2009 22.5212L24.5387 23.1834L25.4135 24.0582C27.0753 22.1188 28.1481 19.6598 28.3547 16.9584H27.1172V17.8949C27.1173 18.1021 26.8785 18.2289 26.7071 18.0964L24.2548 16.2014C24.1228 16.0994 24.1228 15.9007 24.2548 15.7987L26.7071 13.9038C26.8786 13.7712 27.1173 13.8981 27.1172 14.1053V15.0418H28.3546C28.1479 12.3404 27.0752 9.88144 25.4134 7.942L24.5387 8.81669L25.201 9.47894C25.3476 9.62538 25.2684 9.88388 25.0534 9.91138L21.9795 10.3054C21.8141 10.3266 21.6735 10.1861 21.6947 10.0206L22.0888 6.94669C22.1163 6.73169 22.3748 6.65257 22.5212 6.79919L23.1834 7.46138L24.0583 6.58657C22.1188 4.92482 19.6598 3.85194 16.9584 3.64532V4.88288H17.895C18.1022 4.88282 18.229 5.12157 18.0964 5.293L16.2015 7.74525C16.0995 7.87725 15.9008 7.87725 15.7987 7.74525L13.9036 5.29307C13.7711 5.12157 13.8979 4.88282 14.1052 4.88294H15.0417V3.64538C12.3403 3.852 9.88131 4.92488 7.94187 6.58663L8.81669 7.46138Z" fill="#F5821E"/>
</svg>
