<svg width="32" height="32" viewBox="0 0 32 32" fill="none" xmlns="http://www.w3.org/2000/svg">
<path d="M11.2002 7.46665C16.7967 7.46665 21.3336 6.03396 21.3336 4.26665C21.3336 2.49934 16.7967 1.06665 11.2002 1.06665C5.60374 1.06665 1.06689 2.49934 1.06689 4.26665C1.06689 6.03396 5.60374 7.46665 11.2002 7.46665Z" fill="#F5821E"/>
<path d="M1.06689 17.0667C1.06689 18.5803 5.22689 20.2667 11.2002 20.2667C13.1771 20.2824 15.1492 20.0693 17.077 19.6315C17.1033 18.9438 17.3944 18.2929 17.8895 17.8149C18.3846 17.3369 19.0454 17.0688 19.7336 17.0667V13.4886C17.6504 14.4001 14.5501 14.9334 11.2002 14.9334C7.18316 14.9334 2.98209 14.1142 1.06689 12.5659V17.0667Z" fill="#F5821E"/>
<path d="M1.06689 10.6667C1.06689 12.1803 5.22689 13.8667 11.2002 13.8667C14.6328 13.8667 17.8717 13.2662 19.7666 12.2907C19.9004 11.1832 20.4629 10.1722 21.3336 9.47469V6.16803C19.4184 7.71416 15.2173 8.53336 11.2002 8.53336C7.18316 8.53336 2.98209 7.71416 1.06689 6.16589V10.6667ZM4.81409 10.464C4.8296 10.3957 4.85852 10.331 4.89918 10.2739C4.93983 10.2168 4.99141 10.1683 5.05094 10.1312C5.11046 10.0942 5.17674 10.0693 5.24594 10.058C5.31515 10.0468 5.38589 10.0494 5.45409 10.0656C5.62316 10.1046 5.79543 10.1424 5.97143 10.1776C6.10104 10.2039 6.21626 10.2775 6.2947 10.384C6.37315 10.4905 6.40922 10.6223 6.39593 10.7539C6.38264 10.8855 6.32093 11.0074 6.22277 11.0961C6.12462 11.1847 5.99702 11.2338 5.86476 11.2336C5.82895 11.234 5.79319 11.2306 5.75809 11.2235C5.57143 11.1862 5.38832 11.1463 5.20876 11.104C5.07179 11.0711 4.9534 10.9853 4.87946 10.8654C4.80552 10.7455 4.78202 10.6012 4.81409 10.464ZM2.18369 9.48056C2.21337 9.41709 2.25527 9.36009 2.30698 9.31282C2.3587 9.26555 2.41922 9.22893 2.4851 9.20506C2.55097 9.18118 2.6209 9.17052 2.6909 9.17369C2.76089 9.17685 2.82958 9.19378 2.89303 9.22349C3.05303 9.29852 3.22067 9.37069 3.39596 9.44003C3.46247 9.46473 3.52338 9.50245 3.57513 9.55098C3.62688 9.59952 3.66843 9.65789 3.69734 9.72268C3.72625 9.78747 3.74194 9.85738 3.74349 9.92831C3.74504 9.99925 3.73243 10.0698 3.70639 10.1358C3.68034 10.2018 3.64139 10.2619 3.59182 10.3127C3.54225 10.3634 3.48304 10.4038 3.41768 10.4314C3.35232 10.4589 3.2821 10.4732 3.21115 10.4733C3.14021 10.4734 3.06995 10.4594 3.00449 10.432C2.80823 10.3542 2.61943 10.272 2.44076 10.1899C2.37729 10.1602 2.32029 10.1183 2.27302 10.0666C2.22575 10.0149 2.18913 9.95436 2.16526 9.88849C2.14138 9.82262 2.13072 9.75269 2.13389 9.68269C2.13705 9.6127 2.15398 9.54401 2.18369 9.48056Z" fill="#F5821E"/>
<path d="M20.7998 17.0666H21.8665V12.8C21.8665 12.2342 22.0912 11.6916 22.4913 11.2915C22.8914 10.8914 23.434 10.6666 23.9998 10.6666H25.0665C25.6323 10.6666 26.1749 10.8914 26.575 11.2915C26.975 11.6916 27.1998 12.2342 27.1998 12.8V17.0666H28.2665V12.8C28.2656 11.9515 27.9282 11.1381 27.3283 10.5382C26.7283 9.93824 25.9149 9.60082 25.0665 9.59998H23.9998C23.1514 9.60082 22.3379 9.93824 21.738 10.5382C21.1381 11.1381 20.8007 11.9515 20.7998 12.8V17.0666Z" fill="#F5821E"/>
<path d="M24.5333 21.8667C24.182 21.8677 23.8407 21.9844 23.5623 22.1986C23.2838 22.4129 23.0836 22.7129 22.9926 23.0522C22.9016 23.3916 22.9248 23.7515 23.0587 24.0763C23.1926 24.4012 23.4296 24.6729 23.7333 24.8496C23.8145 24.8965 23.8819 24.9639 23.9287 25.0451C23.9755 25.1262 24.0001 25.2183 24 25.312V26.6667H25.0667V25.312C25.0666 25.2183 25.0912 25.1262 25.138 25.0451C25.1848 24.9639 25.2522 24.8965 25.3333 24.8496C25.637 24.6729 25.8741 24.4012 26.008 24.0763C26.1419 23.7515 26.1651 23.3916 26.0741 23.0522C25.983 22.7129 25.7829 22.4129 25.5044 22.1986C25.2259 21.9844 24.8847 21.8677 24.5333 21.8667Z" fill="#F5821E"/>
<path d="M11.2002 26.6666C13.1737 26.6827 15.1423 26.4703 17.0669 26.0336V20.7312C15.1391 21.1447 13.1719 21.3466 11.2002 21.3333C7.18316 21.3333 2.98209 20.5141 1.06689 18.9658V23.4666C1.06689 24.9802 5.22689 26.6666 11.2002 26.6666Z" fill="#F5821E"/>
<path d="M30.9333 19.7333C30.9333 19.309 30.7647 18.902 30.4647 18.6019C30.1646 18.3019 29.7576 18.1333 29.3333 18.1333H19.7333C19.309 18.1333 18.902 18.3019 18.6019 18.6019C18.3019 18.902 18.1333 19.309 18.1333 19.7333V29.3333C18.1333 29.7576 18.3019 30.1646 18.6019 30.4647C18.902 30.7647 19.309 30.9333 19.7333 30.9333H29.3333C29.7576 30.9333 30.1646 30.7647 30.4647 30.4647C30.7647 30.1646 30.9333 29.7576 30.9333 29.3333V19.7333ZM26.1333 25.6V26.6666C26.1333 26.9495 26.0209 27.2208 25.8209 27.4209C25.6208 27.6209 25.3495 27.7333 25.0666 27.7333H24C23.7171 27.7333 23.4458 27.6209 23.2457 27.4209C23.0457 27.2208 22.9333 26.9495 22.9333 26.6666V25.6C22.4856 25.2642 22.1548 24.796 21.9879 24.2617C21.8211 23.7275 21.8265 23.1543 22.0035 22.6234C22.1805 22.0924 22.52 21.6306 22.9741 21.3033C23.4281 20.9761 23.9736 20.8 24.5333 20.8C25.093 20.8 25.6385 20.9761 26.0925 21.3033C26.5466 21.6306 26.8861 22.0924 27.0631 22.6234C27.2401 23.1543 27.2456 23.7275 27.0787 24.2617C26.9118 24.796 26.5811 25.2642 26.1333 25.6Z" fill="#F5821E"/>
</svg>
