<svg xmlns="http://www.w3.org/2000/svg" xmlns:xlink="http://www.w3.org/1999/xlink" width="500" zoomAndPan="magnify" viewBox="0 0 375 374.999991" height="500" preserveAspectRatio="xMidYMid meet" version="1.2"><defs><clipPath id="766f97b0dc"><path d="M 294 170 L 317 170 L 317 193 L 294 193 Z M 294 170 "/></clipPath><clipPath id="c95ba7cd5c"><path d="M 290.449219 174.269531 L 305.667969 160.203125 L 326.503906 182.75 L 311.285156 196.816406 Z M 290.449219 174.269531 "/></clipPath><clipPath id="62345b8c92"><path d="M 290.449219 174.269531 L 305.667969 160.203125 L 326.503906 182.75 L 311.285156 196.816406 Z M 290.449219 174.269531 "/></clipPath><clipPath id="ae2f7f475d"><path d="M 305 160 L 328 160 L 328 183 L 305 183 Z M 305 160 "/></clipPath><clipPath id="2bbcf5c4f5"><path d="M 301.367188 164.175781 L 316.585938 150.113281 L 337.421875 172.65625 L 322.207031 186.722656 Z M 301.367188 164.175781 "/></clipPath><clipPath id="8c7403b07e"><path d="M 301.367188 164.175781 L 316.585938 150.113281 L 337.421875 172.65625 L 322.207031 186.722656 Z M 301.367188 164.175781 "/></clipPath></defs><g id="108933822a"><g clip-rule="nonzero" clip-path="url(#766f97b0dc)"><g clip-rule="nonzero" clip-path="url(#c95ba7cd5c)"><g clip-rule="nonzero" clip-path="url(#62345b8c92)"><path style=" stroke:none;fill-rule:nonzero;fill:#278d27;fill-opacity:1;" d="M 316.09375 171.769531 L 297.753906 170.953125 C 294.214844 170.796875 293.617188 177.695312 297.8125 177.808594 L 309.222656 178.117188 L 308.351562 189.601562 C 308.085938 193.097656 314.902344 193.464844 315.097656 189.914062 Z M 316.09375 171.769531 "/></g></g></g><g clip-rule="nonzero" clip-path="url(#ae2f7f475d)"><g clip-rule="nonzero" clip-path="url(#2bbcf5c4f5)"><g clip-rule="nonzero" clip-path="url(#8c7403b07e)"><path style=" stroke:none;fill-rule:nonzero;fill:#ffffff;fill-opacity:1;" d="M 327.011719 161.675781 L 308.675781 160.859375 C 305.132812 160.703125 304.535156 167.601562 308.730469 167.71875 L 320.140625 168.027344 L 319.269531 179.507812 C 319.003906 183.003906 325.824219 183.375 326.019531 179.820312 Z M 327.011719 161.675781 "/></g></g></g><g style="fill:#278d27;fill-opacity:1;"><g transform="translate(55.53809, 204.421413)"><path style="stroke:none" d="M 6.203125 -6.34375 L 6.203125 -1.828125 C 6.203125 -1.203125 5.976562 -0.738281 5.53125 -0.4375 C 5.09375 -0.144531 4.625 0 4.125 0 C 3.59375 0 3.117188 -0.144531 2.703125 -0.4375 C 2.285156 -0.738281 2.078125 -1.191406 2.078125 -1.796875 L 2.078125 -20.953125 C 2.078125 -21.503906 2.28125 -21.953125 2.6875 -22.296875 C 3.09375 -22.640625 3.582031 -22.8125 4.15625 -22.8125 L 11.453125 -22.8125 C 13.441406 -22.8125 15.140625 -22.457031 16.546875 -21.75 C 17.953125 -21.050781 19.023438 -20.070312 19.765625 -18.8125 C 20.503906 -17.5625 20.875 -16.085938 20.875 -14.390625 C 20.875 -11.984375 20.035156 -10.039062 18.359375 -8.5625 C 16.691406 -7.082031 14.359375 -6.34375 11.359375 -6.34375 Z M 6.203125 -19.265625 L 6.203125 -9.890625 L 11.359375 -9.890625 C 13.117188 -9.890625 14.460938 -10.300781 15.390625 -11.125 C 16.328125 -11.945312 16.796875 -13.035156 16.796875 -14.390625 C 16.796875 -15.867188 16.332031 -17.050781 15.40625 -17.9375 C 14.488281 -18.820312 13.1875 -19.265625 11.5 -19.265625 Z M 6.203125 -19.265625 "/></g></g><g style="fill:#278d27;fill-opacity:1;"><g transform="translate(77.097056, 204.421413)"><path style="stroke:none" d="M 9.671875 -18.234375 C 10.316406 -18.234375 10.828125 -18.09375 11.203125 -17.8125 C 11.585938 -17.539062 11.78125 -17.09375 11.78125 -16.46875 C 11.78125 -15.894531 11.585938 -15.441406 11.203125 -15.109375 C 10.828125 -14.773438 10.316406 -14.609375 9.671875 -14.609375 C 8.160156 -14.609375 7.101562 -14.070312 6.5 -13 C 5.894531 -11.925781 5.59375 -10.46875 5.59375 -8.625 L 5.59375 -1.828125 C 5.59375 -1.296875 5.398438 -0.859375 5.015625 -0.515625 C 4.628906 -0.171875 4.160156 0 3.609375 0 C 2.992188 0 2.492188 -0.171875 2.109375 -0.515625 C 1.734375 -0.859375 1.546875 -1.296875 1.546875 -1.828125 L 1.546875 -16.40625 C 1.546875 -16.976562 1.765625 -17.425781 2.203125 -17.75 C 2.640625 -18.070312 3.109375 -18.234375 3.609375 -18.234375 C 4.117188 -18.234375 4.578125 -18.078125 4.984375 -17.765625 C 5.390625 -17.453125 5.59375 -17 5.59375 -16.40625 L 5.59375 -16.1875 C 6.113281 -16.875 6.71875 -17.382812 7.40625 -17.71875 C 8.101562 -18.0625 8.859375 -18.234375 9.671875 -18.234375 Z M 9.671875 -18.234375 "/></g></g><g style="fill:#278d27;fill-opacity:1;"><g transform="translate(87.804836, 204.421413)"><path style="stroke:none" d="M 10.25 -18.59375 C 12.15625 -18.59375 13.820312 -18.191406 15.25 -17.390625 C 16.6875 -16.585938 17.796875 -15.46875 18.578125 -14.03125 C 19.367188 -12.601562 19.765625 -10.9375 19.765625 -9.03125 C 19.742188 -7.164062 19.332031 -5.523438 18.53125 -4.109375 C 17.726562 -2.703125 16.617188 -1.601562 15.203125 -0.8125 C 13.785156 -0.03125 12.132812 0.359375 10.25 0.359375 C 8.382812 0.359375 6.734375 -0.03125 5.296875 -0.8125 C 3.867188 -1.601562 2.753906 -2.703125 1.953125 -4.109375 C 1.148438 -5.523438 0.738281 -7.164062 0.71875 -9.03125 C 0.71875 -10.9375 1.113281 -12.601562 1.90625 -14.03125 C 2.707031 -15.46875 3.820312 -16.585938 5.25 -17.390625 C 6.6875 -18.191406 8.351562 -18.59375 10.25 -18.59375 Z M 10.25 -3.21875 C 11.863281 -3.21875 13.15625 -3.753906 14.125 -4.828125 C 15.09375 -5.910156 15.578125 -7.3125 15.578125 -9.03125 C 15.578125 -10.789062 15.09375 -12.222656 14.125 -13.328125 C 13.15625 -14.441406 11.863281 -15 10.25 -15 C 8.644531 -15 7.351562 -14.441406 6.375 -13.328125 C 5.394531 -12.222656 4.90625 -10.789062 4.90625 -9.03125 C 4.90625 -7.3125 5.394531 -5.910156 6.375 -4.828125 C 7.351562 -3.753906 8.644531 -3.21875 10.25 -3.21875 Z M 10.25 -3.21875 "/></g></g><g style="fill:#278d27;fill-opacity:1;"><g transform="translate(107.680616, 204.421413)"><path style="stroke:none" d="M 9.84375 -3.40625 C 10.394531 -3.71875 10.890625 -3.820312 11.328125 -3.71875 C 11.773438 -3.625 12.132812 -3.414062 12.40625 -3.09375 C 12.6875 -2.769531 12.828125 -2.394531 12.828125 -1.96875 C 12.828125 -1.65625 12.726562 -1.34375 12.53125 -1.03125 C 12.34375 -0.726562 12.046875 -0.46875 11.640625 -0.25 C 11.109375 0.03125 10.628906 0.203125 10.203125 0.265625 C 9.773438 0.328125 9.273438 0.359375 8.703125 0.359375 C 7.148438 0.359375 5.957031 0.0351562 5.125 -0.609375 C 4.289062 -1.253906 3.71875 -2.085938 3.40625 -3.109375 C 3.09375 -4.140625 2.9375 -5.226562 2.9375 -6.375 L 2.9375 -14.828125 L 1.578125 -14.828125 C 0.910156 -14.828125 0.414062 -15.003906 0.09375 -15.359375 C -0.226562 -15.722656 -0.390625 -16.109375 -0.390625 -16.515625 C -0.390625 -16.941406 -0.222656 -17.332031 0.109375 -17.6875 C 0.441406 -18.050781 0.929688 -18.234375 1.578125 -18.234375 L 2.9375 -18.234375 L 2.9375 -21.3125 C 2.9375 -21.925781 3.140625 -22.390625 3.546875 -22.703125 C 3.953125 -23.015625 4.414062 -23.171875 4.9375 -23.171875 C 5.4375 -23.171875 5.898438 -23.015625 6.328125 -22.703125 C 6.765625 -22.390625 6.984375 -21.925781 6.984375 -21.3125 L 6.984375 -18.234375 L 9.78125 -18.234375 C 10.394531 -18.234375 10.867188 -18.050781 11.203125 -17.6875 C 11.535156 -17.332031 11.703125 -16.941406 11.703125 -16.515625 C 11.703125 -16.078125 11.535156 -15.6875 11.203125 -15.34375 C 10.867188 -15 10.394531 -14.828125 9.78125 -14.828125 L 6.984375 -14.828125 L 6.984375 -6.375 C 6.984375 -5.851562 7.019531 -5.347656 7.09375 -4.859375 C 7.164062 -4.367188 7.328125 -3.960938 7.578125 -3.640625 C 7.828125 -3.316406 8.203125 -3.15625 8.703125 -3.15625 C 8.890625 -3.15625 9.097656 -3.179688 9.328125 -3.234375 C 9.554688 -3.296875 9.726562 -3.351562 9.84375 -3.40625 Z M 9.84375 -3.40625 "/></g></g><g style="fill:#278d27;fill-opacity:1;"><g transform="translate(120.10739, 204.421413)"><path style="stroke:none" d="M 10.25 -3.1875 C 10.9375 -3.1875 11.613281 -3.28125 12.28125 -3.46875 C 12.945312 -3.664062 13.566406 -3.988281 14.140625 -4.4375 C 14.691406 -4.9375 15.226562 -5.164062 15.75 -5.125 C 16.28125 -5.09375 16.71875 -4.90625 17.0625 -4.5625 C 17.40625 -4.21875 17.578125 -3.785156 17.578125 -3.265625 C 17.578125 -2.753906 17.328125 -2.265625 16.828125 -1.796875 C 15.992188 -0.984375 15.003906 -0.414062 13.859375 -0.09375 C 12.710938 0.226562 11.539062 0.378906 10.34375 0.359375 C 8.488281 0.359375 6.847656 -0.0195312 5.421875 -0.78125 C 4.003906 -1.550781 2.894531 -2.613281 2.09375 -3.96875 C 1.289062 -5.332031 0.890625 -6.910156 0.890625 -8.703125 C 0.890625 -10.660156 1.269531 -12.378906 2.03125 -13.859375 C 2.800781 -15.335938 3.882812 -16.492188 5.28125 -17.328125 C 6.675781 -18.171875 8.332031 -18.59375 10.25 -18.59375 C 12.15625 -18.59375 13.773438 -18.203125 15.109375 -17.421875 C 16.453125 -16.648438 17.472656 -15.5625 18.171875 -14.15625 C 18.878906 -12.757812 19.234375 -11.132812 19.234375 -9.28125 C 19.234375 -8.675781 19.113281 -8.164062 18.875 -7.75 C 18.632812 -7.332031 18 -7.125 16.96875 -7.125 L 5.046875 -7.125 C 5.378906 -5.957031 6.007812 -5.007812 6.9375 -4.28125 C 7.875 -3.550781 8.976562 -3.1875 10.25 -3.1875 Z M 10.28125 -15.046875 C 8.894531 -15.046875 7.734375 -14.609375 6.796875 -13.734375 C 5.867188 -12.859375 5.273438 -11.71875 5.015625 -10.3125 L 15.4375 -10.3125 C 15.3125 -11.71875 14.84375 -12.859375 14.03125 -13.734375 C 13.226562 -14.609375 11.976562 -15.046875 10.28125 -15.046875 Z M 10.28125 -15.046875 "/></g></g><g style="fill:#278d27;fill-opacity:1;"><g transform="translate(140.914296, 204.421413)"><path style="stroke:none" d="M 14.140625 -13.328125 C 13.597656 -13.972656 12.957031 -14.425781 12.21875 -14.6875 C 11.476562 -14.945312 10.75 -15.078125 10.03125 -15.078125 C 8.445312 -15.078125 7.175781 -14.53125 6.21875 -13.4375 C 5.269531 -12.351562 4.796875 -10.894531 4.796875 -9.0625 C 4.796875 -7.289062 5.289062 -5.867188 6.28125 -4.796875 C 7.269531 -3.722656 8.566406 -3.1875 10.171875 -3.1875 C 10.890625 -3.1875 11.617188 -3.3125 12.359375 -3.5625 C 13.097656 -3.8125 13.753906 -4.222656 14.328125 -4.796875 C 14.847656 -5.328125 15.363281 -5.601562 15.875 -5.625 C 16.394531 -5.644531 16.820312 -5.5 17.15625 -5.1875 C 17.488281 -4.882812 17.671875 -4.488281 17.703125 -4 C 17.742188 -3.507812 17.535156 -3.007812 17.078125 -2.5 C 16.148438 -1.476562 15.082031 -0.742188 13.875 -0.296875 C 12.664062 0.140625 11.421875 0.359375 10.140625 0.359375 C 8.253906 0.359375 6.597656 -0.03125 5.171875 -0.8125 C 3.753906 -1.601562 2.648438 -2.703125 1.859375 -4.109375 C 1.078125 -5.523438 0.6875 -7.164062 0.6875 -9.03125 C 0.6875 -10.957031 1.070312 -12.632812 1.84375 -14.0625 C 2.625 -15.5 3.71875 -16.613281 5.125 -17.40625 C 6.53125 -18.195312 8.164062 -18.59375 10.03125 -18.59375 C 11.34375 -18.59375 12.566406 -18.390625 13.703125 -17.984375 C 14.835938 -17.578125 15.878906 -16.8125 16.828125 -15.6875 C 17.253906 -15.1875 17.4375 -14.695312 17.375 -14.21875 C 17.320312 -13.738281 17.113281 -13.34375 16.75 -13.03125 C 16.394531 -12.71875 15.972656 -12.566406 15.484375 -12.578125 C 14.992188 -12.597656 14.546875 -12.847656 14.140625 -13.328125 Z M 14.140625 -13.328125 "/></g></g><g style="fill:#278d27;fill-opacity:1;"><g transform="translate(158.820387, 204.421413)"><path style="stroke:none" d="M 9.84375 -3.40625 C 10.394531 -3.71875 10.890625 -3.820312 11.328125 -3.71875 C 11.773438 -3.625 12.132812 -3.414062 12.40625 -3.09375 C 12.6875 -2.769531 12.828125 -2.394531 12.828125 -1.96875 C 12.828125 -1.65625 12.726562 -1.34375 12.53125 -1.03125 C 12.34375 -0.726562 12.046875 -0.46875 11.640625 -0.25 C 11.109375 0.03125 10.628906 0.203125 10.203125 0.265625 C 9.773438 0.328125 9.273438 0.359375 8.703125 0.359375 C 7.148438 0.359375 5.957031 0.0351562 5.125 -0.609375 C 4.289062 -1.253906 3.71875 -2.085938 3.40625 -3.109375 C 3.09375 -4.140625 2.9375 -5.226562 2.9375 -6.375 L 2.9375 -14.828125 L 1.578125 -14.828125 C 0.910156 -14.828125 0.414062 -15.003906 0.09375 -15.359375 C -0.226562 -15.722656 -0.390625 -16.109375 -0.390625 -16.515625 C -0.390625 -16.941406 -0.222656 -17.332031 0.109375 -17.6875 C 0.441406 -18.050781 0.929688 -18.234375 1.578125 -18.234375 L 2.9375 -18.234375 L 2.9375 -21.3125 C 2.9375 -21.925781 3.140625 -22.390625 3.546875 -22.703125 C 3.953125 -23.015625 4.414062 -23.171875 4.9375 -23.171875 C 5.4375 -23.171875 5.898438 -23.015625 6.328125 -22.703125 C 6.765625 -22.390625 6.984375 -21.925781 6.984375 -21.3125 L 6.984375 -18.234375 L 9.78125 -18.234375 C 10.394531 -18.234375 10.867188 -18.050781 11.203125 -17.6875 C 11.535156 -17.332031 11.703125 -16.941406 11.703125 -16.515625 C 11.703125 -16.078125 11.535156 -15.6875 11.203125 -15.34375 C 10.867188 -15 10.394531 -14.828125 9.78125 -14.828125 L 6.984375 -14.828125 L 6.984375 -6.375 C 6.984375 -5.851562 7.019531 -5.347656 7.09375 -4.859375 C 7.164062 -4.367188 7.328125 -3.960938 7.578125 -3.640625 C 7.828125 -3.316406 8.203125 -3.15625 8.703125 -3.15625 C 8.890625 -3.15625 9.097656 -3.179688 9.328125 -3.234375 C 9.554688 -3.296875 9.726562 -3.351562 9.84375 -3.40625 Z M 9.84375 -3.40625 "/></g></g><g style="fill:#278d27;fill-opacity:1;"><g transform="translate(171.247161, 204.421413)"><path style="stroke:none" d=""/></g></g><g style="fill:#ffffff;fill-opacity:1;"><g transform="translate(179.663102, 204.421413)"><path style="stroke:none" d="M 10.5625 -22.8125 C 12.738281 -22.8125 14.632812 -22.332031 16.25 -21.375 C 17.875 -20.425781 19.140625 -19.097656 20.046875 -17.390625 C 20.960938 -15.679688 21.421875 -13.679688 21.421875 -11.390625 C 21.421875 -9.117188 20.960938 -7.125 20.046875 -5.40625 C 19.140625 -3.6875 17.875 -2.351562 16.25 -1.40625 C 14.632812 -0.46875 12.738281 0 10.5625 0 L 3.1875 0 C 2.539062 0 1.984375 -0.207031 1.515625 -0.625 C 1.054688 -1.039062 0.828125 -1.535156 0.828125 -2.109375 L 0.828125 -20.734375 C 0.828125 -21.304688 1.054688 -21.796875 1.515625 -22.203125 C 1.984375 -22.609375 2.539062 -22.8125 3.1875 -22.8125 Z M 10.5625 -3.546875 C 11.894531 -3.546875 13.066406 -3.875 14.078125 -4.53125 C 15.097656 -5.1875 15.890625 -6.097656 16.453125 -7.265625 C 17.015625 -8.441406 17.296875 -9.816406 17.296875 -11.390625 C 17.296875 -12.960938 17.015625 -14.34375 16.453125 -15.53125 C 15.890625 -16.726562 15.097656 -17.65625 14.078125 -18.3125 C 13.066406 -18.96875 11.894531 -19.296875 10.5625 -19.296875 L 4.90625 -19.296875 L 4.90625 -3.546875 Z M 10.5625 -3.546875 "/></g></g><g style="fill:#ffffff;fill-opacity:1;"><g transform="translate(201.830881, 204.421413)"><path style="stroke:none" d="M 10.25 -3.1875 C 10.9375 -3.1875 11.613281 -3.28125 12.28125 -3.46875 C 12.945312 -3.664062 13.566406 -3.988281 14.140625 -4.4375 C 14.691406 -4.9375 15.226562 -5.164062 15.75 -5.125 C 16.28125 -5.09375 16.71875 -4.90625 17.0625 -4.5625 C 17.40625 -4.21875 17.578125 -3.785156 17.578125 -3.265625 C 17.578125 -2.753906 17.328125 -2.265625 16.828125 -1.796875 C 15.992188 -0.984375 15.003906 -0.414062 13.859375 -0.09375 C 12.710938 0.226562 11.539062 0.378906 10.34375 0.359375 C 8.488281 0.359375 6.847656 -0.0195312 5.421875 -0.78125 C 4.003906 -1.550781 2.894531 -2.613281 2.09375 -3.96875 C 1.289062 -5.332031 0.890625 -6.910156 0.890625 -8.703125 C 0.890625 -10.660156 1.269531 -12.378906 2.03125 -13.859375 C 2.800781 -15.335938 3.882812 -16.492188 5.28125 -17.328125 C 6.675781 -18.171875 8.332031 -18.59375 10.25 -18.59375 C 12.15625 -18.59375 13.773438 -18.203125 15.109375 -17.421875 C 16.453125 -16.648438 17.472656 -15.5625 18.171875 -14.15625 C 18.878906 -12.757812 19.234375 -11.132812 19.234375 -9.28125 C 19.234375 -8.675781 19.113281 -8.164062 18.875 -7.75 C 18.632812 -7.332031 18 -7.125 16.96875 -7.125 L 5.046875 -7.125 C 5.378906 -5.957031 6.007812 -5.007812 6.9375 -4.28125 C 7.875 -3.550781 8.976562 -3.1875 10.25 -3.1875 Z M 10.28125 -15.046875 C 8.894531 -15.046875 7.734375 -14.609375 6.796875 -13.734375 C 5.867188 -12.859375 5.273438 -11.71875 5.015625 -10.3125 L 15.4375 -10.3125 C 15.3125 -11.71875 14.84375 -12.859375 14.03125 -13.734375 C 13.226562 -14.609375 11.976562 -15.046875 10.28125 -15.046875 Z M 10.28125 -15.046875 "/></g></g><g style="fill:#ffffff;fill-opacity:1;"><g transform="translate(222.637787, 204.421413)"><path style="stroke:none" d="M 0.46875 -4.265625 C 0.300781 -4.929688 0.453125 -5.46875 0.921875 -5.875 C 1.398438 -6.28125 1.925781 -6.484375 2.5 -6.484375 C 2.9375 -6.484375 3.320312 -6.359375 3.65625 -6.109375 C 3.988281 -5.859375 4.238281 -5.484375 4.40625 -4.984375 C 4.550781 -4.546875 4.859375 -4.191406 5.328125 -3.921875 C 5.804688 -3.648438 6.363281 -3.453125 7 -3.328125 C 7.632812 -3.210938 8.273438 -3.15625 8.921875 -3.15625 C 10.203125 -3.15625 11.238281 -3.382812 12.03125 -3.84375 C 12.820312 -4.3125 13.21875 -4.90625 13.21875 -5.625 C 13.21875 -6.125 13.007812 -6.492188 12.59375 -6.734375 C 12.175781 -6.972656 11.625 -7.140625 10.9375 -7.234375 C 10.257812 -7.328125 9.539062 -7.398438 8.78125 -7.453125 C 7.769531 -7.546875 6.78125 -7.660156 5.8125 -7.796875 C 4.851562 -7.941406 3.976562 -8.1875 3.1875 -8.53125 C 2.394531 -8.882812 1.757812 -9.398438 1.28125 -10.078125 C 0.8125 -10.765625 0.578125 -11.691406 0.578125 -12.859375 C 0.578125 -14.003906 0.910156 -15.003906 1.578125 -15.859375 C 2.242188 -16.722656 3.1875 -17.394531 4.40625 -17.875 C 5.625 -18.351562 7.03125 -18.59375 8.625 -18.59375 C 9.5625 -18.59375 10.566406 -18.5 11.640625 -18.3125 C 12.710938 -18.132812 13.707031 -17.769531 14.625 -17.21875 C 15.550781 -16.675781 16.226562 -15.832031 16.65625 -14.6875 C 16.820312 -14.207031 16.804688 -13.78125 16.609375 -13.40625 C 16.421875 -13.039062 16.140625 -12.757812 15.765625 -12.5625 C 15.398438 -12.375 15.023438 -12.28125 14.640625 -12.28125 C 14.210938 -12.28125 13.859375 -12.363281 13.578125 -12.53125 C 13.304688 -12.695312 13.078125 -12.984375 12.890625 -13.390625 C 12.671875 -13.890625 12.304688 -14.257812 11.796875 -14.5 C 11.285156 -14.738281 10.738281 -14.890625 10.15625 -14.953125 C 9.570312 -15.015625 9.0625 -15.046875 8.625 -15.046875 C 7.4375 -15.046875 6.476562 -14.84375 5.75 -14.4375 C 5.019531 -14.03125 4.65625 -13.492188 4.65625 -12.828125 C 4.65625 -12.253906 4.84375 -11.863281 5.21875 -11.65625 C 5.601562 -11.457031 6.125 -11.335938 6.78125 -11.296875 C 7.4375 -11.265625 8.171875 -11.203125 8.984375 -11.109375 C 9.992188 -10.984375 10.988281 -10.847656 11.96875 -10.703125 C 12.945312 -10.566406 13.835938 -10.320312 14.640625 -9.96875 C 15.453125 -9.625 16.097656 -9.109375 16.578125 -8.421875 C 17.054688 -7.742188 17.296875 -6.8125 17.296875 -5.625 C 17.296875 -4.457031 16.941406 -3.414062 16.234375 -2.5 C 15.535156 -1.59375 14.554688 -0.890625 13.296875 -0.390625 C 12.046875 0.109375 10.585938 0.359375 8.921875 0.359375 C 8.179688 0.359375 7.375 0.300781 6.5 0.1875 C 5.625 0.0820312 4.773438 -0.128906 3.953125 -0.453125 C 3.128906 -0.773438 2.40625 -1.238281 1.78125 -1.84375 C 1.164062 -2.445312 0.726562 -3.253906 0.46875 -4.265625 Z M 0.46875 -4.265625 "/></g></g><g style="fill:#ffffff;fill-opacity:1;"><g transform="translate(240.436441, 204.421413)"><path style="stroke:none" d="M 9.84375 -3.40625 C 10.394531 -3.71875 10.890625 -3.820312 11.328125 -3.71875 C 11.773438 -3.625 12.132812 -3.414062 12.40625 -3.09375 C 12.6875 -2.769531 12.828125 -2.394531 12.828125 -1.96875 C 12.828125 -1.65625 12.726562 -1.34375 12.53125 -1.03125 C 12.34375 -0.726562 12.046875 -0.46875 11.640625 -0.25 C 11.109375 0.03125 10.628906 0.203125 10.203125 0.265625 C 9.773438 0.328125 9.273438 0.359375 8.703125 0.359375 C 7.148438 0.359375 5.957031 0.0351562 5.125 -0.609375 C 4.289062 -1.253906 3.71875 -2.085938 3.40625 -3.109375 C 3.09375 -4.140625 2.9375 -5.226562 2.9375 -6.375 L 2.9375 -14.828125 L 1.578125 -14.828125 C 0.910156 -14.828125 0.414062 -15.003906 0.09375 -15.359375 C -0.226562 -15.722656 -0.390625 -16.109375 -0.390625 -16.515625 C -0.390625 -16.941406 -0.222656 -17.332031 0.109375 -17.6875 C 0.441406 -18.050781 0.929688 -18.234375 1.578125 -18.234375 L 2.9375 -18.234375 L 2.9375 -21.3125 C 2.9375 -21.925781 3.140625 -22.390625 3.546875 -22.703125 C 3.953125 -23.015625 4.414062 -23.171875 4.9375 -23.171875 C 5.4375 -23.171875 5.898438 -23.015625 6.328125 -22.703125 C 6.765625 -22.390625 6.984375 -21.925781 6.984375 -21.3125 L 6.984375 -18.234375 L 9.78125 -18.234375 C 10.394531 -18.234375 10.867188 -18.050781 11.203125 -17.6875 C 11.535156 -17.332031 11.703125 -16.941406 11.703125 -16.515625 C 11.703125 -16.078125 11.535156 -15.6875 11.203125 -15.34375 C 10.867188 -15 10.394531 -14.828125 9.78125 -14.828125 L 6.984375 -14.828125 L 6.984375 -6.375 C 6.984375 -5.851562 7.019531 -5.347656 7.09375 -4.859375 C 7.164062 -4.367188 7.328125 -3.960938 7.578125 -3.640625 C 7.828125 -3.316406 8.203125 -3.15625 8.703125 -3.15625 C 8.890625 -3.15625 9.097656 -3.179688 9.328125 -3.234375 C 9.554688 -3.296875 9.726562 -3.351562 9.84375 -3.40625 Z M 9.84375 -3.40625 "/></g></g><g style="fill:#ffffff;fill-opacity:1;"><g transform="translate(252.863216, 204.421413)"><path style="stroke:none" d="M 5.375 -20.921875 C 5.375 -20.316406 5.148438 -19.863281 4.703125 -19.5625 C 4.265625 -19.269531 3.796875 -19.125 3.296875 -19.125 C 2.765625 -19.125 2.285156 -19.269531 1.859375 -19.5625 C 1.429688 -19.863281 1.21875 -20.316406 1.21875 -20.921875 L 1.21875 -21.375 C 1.21875 -22 1.429688 -22.453125 1.859375 -22.734375 C 2.285156 -23.023438 2.765625 -23.171875 3.296875 -23.171875 C 3.796875 -23.171875 4.265625 -23.023438 4.703125 -22.734375 C 5.148438 -22.453125 5.375 -22 5.375 -21.375 Z M 1.25 -16.46875 C 1.25 -17.039062 1.46875 -17.476562 1.90625 -17.78125 C 2.351562 -18.082031 2.816406 -18.234375 3.296875 -18.234375 C 3.796875 -18.234375 4.257812 -18.082031 4.6875 -17.78125 C 5.125 -17.476562 5.34375 -17.054688 5.34375 -16.515625 L 5.34375 -1.75 C 5.34375 -1.15625 5.125 -0.710938 4.6875 -0.421875 C 4.257812 -0.140625 3.796875 0 3.296875 0 C 2.816406 0 2.351562 -0.140625 1.90625 -0.421875 C 1.46875 -0.710938 1.25 -1.15625 1.25 -1.75 Z M 1.25 -16.46875 "/></g></g><g style="fill:#ffffff;fill-opacity:1;"><g transform="translate(258.736301, 204.421413)"><path style="stroke:none" d="M 12.0625 -18.59375 C 13.738281 -18.59375 15.160156 -18.226562 16.328125 -17.5 C 17.492188 -16.769531 18.390625 -15.757812 19.015625 -14.46875 C 19.640625 -13.175781 19.953125 -11.671875 19.953125 -9.953125 L 19.953125 -1.859375 C 19.953125 -1.304688 19.769531 -0.859375 19.40625 -0.515625 C 19.050781 -0.171875 18.550781 0 17.90625 0 C 17.3125 0 16.820312 -0.171875 16.4375 -0.515625 C 16.050781 -0.859375 15.859375 -1.304688 15.859375 -1.859375 L 15.859375 -10.03125 C 15.859375 -11.507812 15.503906 -12.707031 14.796875 -13.625 C 14.097656 -14.539062 12.984375 -15 11.453125 -15 C 11.003906 -15 10.460938 -14.875 9.828125 -14.625 C 9.191406 -14.375 8.570312 -14 7.96875 -13.5 C 7.363281 -13 6.863281 -12.363281 6.46875 -11.59375 C 6.070312 -10.832031 5.875 -9.925781 5.875 -8.875 L 5.875 -1.828125 C 5.875 -0.609375 5.21875 0 3.90625 0 C 3.28125 0 2.769531 -0.160156 2.375 -0.484375 C 1.988281 -0.804688 1.796875 -1.253906 1.796875 -1.828125 L 1.796875 -16.40625 C 1.796875 -17 2.003906 -17.453125 2.421875 -17.765625 C 2.835938 -18.078125 3.304688 -18.234375 3.828125 -18.234375 C 4.328125 -18.234375 4.789062 -18.078125 5.21875 -17.765625 C 5.65625 -17.453125 5.875 -17.019531 5.875 -16.46875 L 5.875 -16.21875 C 6.894531 -17.175781 7.953125 -17.8125 9.046875 -18.125 C 10.148438 -18.4375 11.15625 -18.59375 12.0625 -18.59375 Z M 12.0625 -18.59375 "/></g></g><g style="fill:#ffffff;fill-opacity:1;"><g transform="translate(280.474332, 204.421413)"><path style="stroke:none" d="M 16.6875 -18.234375 C 17.3125 -18.234375 17.84375 -17.960938 18.28125 -17.421875 C 18.71875 -16.878906 18.804688 -16.253906 18.546875 -15.546875 L 8.09375 4.984375 C 7.851562 5.429688 7.546875 5.785156 7.171875 6.046875 C 6.804688 6.316406 6.421875 6.453125 6.015625 6.453125 C 5.609375 6.453125 5.234375 6.3125 4.890625 6.03125 C 4.546875 5.757812 4.304688 5.40625 4.171875 4.96875 C 4.035156 4.539062 4.085938 4.085938 4.328125 3.609375 L 7.0625 -1.75 L 0 -15.40625 C -0.21875 -15.875 -0.25 -16.320312 -0.09375 -16.75 C 0.0625 -17.1875 0.316406 -17.539062 0.671875 -17.8125 C 1.035156 -18.09375 1.429688 -18.234375 1.859375 -18.234375 C 2.242188 -18.234375 2.613281 -18.113281 2.96875 -17.875 C 3.332031 -17.632812 3.597656 -17.320312 3.765625 -16.9375 L 9.28125 -6.15625 L 14.796875 -16.96875 C 14.960938 -17.351562 15.210938 -17.660156 15.546875 -17.890625 C 15.878906 -18.117188 16.257812 -18.234375 16.6875 -18.234375 Z M 16.6875 -18.234375 "/></g></g><g style="fill:#ffffff;fill-opacity:1;"><g transform="translate(88.481029, 222.167885)"><path style="stroke:none" d="M 0.5625 -4.53125 C 0.5625 -5.414062 0.757812 -6.210938 1.15625 -6.921875 C 1.550781 -7.628906 2.09375 -8.179688 2.78125 -8.578125 C 3.476562 -8.972656 4.242188 -9.171875 5.078125 -9.171875 C 6.066406 -9.171875 6.929688 -8.929688 7.671875 -8.453125 C 8.410156 -7.984375 8.945312 -7.3125 9.28125 -6.4375 L 7.859375 -6.4375 C 7.609375 -6.976562 7.25 -7.394531 6.78125 -7.6875 C 6.3125 -7.988281 5.742188 -8.140625 5.078125 -8.140625 C 4.453125 -8.140625 3.882812 -7.988281 3.375 -7.6875 C 2.875 -7.394531 2.476562 -6.976562 2.1875 -6.4375 C 1.90625 -5.894531 1.765625 -5.257812 1.765625 -4.53125 C 1.765625 -3.8125 1.90625 -3.179688 2.1875 -2.640625 C 2.476562 -2.097656 2.875 -1.679688 3.375 -1.390625 C 3.882812 -1.097656 4.453125 -0.953125 5.078125 -0.953125 C 5.742188 -0.953125 6.3125 -1.09375 6.78125 -1.375 C 7.25 -1.664062 7.609375 -2.085938 7.859375 -2.640625 L 9.28125 -2.640625 C 8.945312 -1.773438 8.410156 -1.101562 7.671875 -0.625 C 6.929688 -0.15625 6.066406 0.078125 5.078125 0.078125 C 4.242188 0.078125 3.476562 -0.117188 2.78125 -0.515625 C 2.09375 -0.910156 1.550781 -1.457031 1.15625 -2.15625 C 0.757812 -2.863281 0.5625 -3.65625 0.5625 -4.53125 Z M 0.5625 -4.53125 "/></g></g><g style="fill:#ffffff;fill-opacity:1;"><g transform="translate(98.019954, 222.167885)"><path style="stroke:none" d="M 2.1875 -5.96875 C 2.394531 -6.375 2.691406 -6.6875 3.078125 -6.90625 C 3.460938 -7.132812 3.929688 -7.25 4.484375 -7.25 L 4.484375 -6.03125 L 4.171875 -6.03125 C 2.847656 -6.03125 2.1875 -5.3125 2.1875 -3.875 L 2.1875 0 L 1 0 L 1 -7.125 L 2.1875 -7.125 Z M 2.1875 -5.96875 "/></g></g><g style="fill:#ffffff;fill-opacity:1;"><g transform="translate(102.373469, 222.167885)"><path style="stroke:none" d="M 0.5625 -3.59375 C 0.5625 -4.320312 0.707031 -4.957031 1 -5.5 C 1.289062 -6.050781 1.691406 -6.476562 2.203125 -6.78125 C 2.722656 -7.082031 3.300781 -7.234375 3.9375 -7.234375 C 4.5625 -7.234375 5.101562 -7.097656 5.5625 -6.828125 C 6.019531 -6.566406 6.363281 -6.234375 6.59375 -5.828125 L 6.59375 -7.125 L 7.78125 -7.125 L 7.78125 0 L 6.59375 0 L 6.59375 -1.328125 C 6.351562 -0.910156 6 -0.566406 5.53125 -0.296875 C 5.070312 -0.0234375 4.535156 0.109375 3.921875 0.109375 C 3.296875 0.109375 2.722656 -0.0390625 2.203125 -0.34375 C 1.691406 -0.65625 1.289062 -1.09375 1 -1.65625 C 0.707031 -2.226562 0.5625 -2.875 0.5625 -3.59375 Z M 6.59375 -3.578125 C 6.59375 -4.109375 6.484375 -4.570312 6.265625 -4.96875 C 6.046875 -5.375 5.753906 -5.679688 5.390625 -5.890625 C 5.023438 -6.109375 4.617188 -6.21875 4.171875 -6.21875 C 3.734375 -6.21875 3.332031 -6.113281 2.96875 -5.90625 C 2.601562 -5.695312 2.3125 -5.390625 2.09375 -4.984375 C 1.875 -4.585938 1.765625 -4.125 1.765625 -3.59375 C 1.765625 -3.039062 1.875 -2.5625 2.09375 -2.15625 C 2.3125 -1.757812 2.601562 -1.453125 2.96875 -1.234375 C 3.332031 -1.023438 3.734375 -0.921875 4.171875 -0.921875 C 4.617188 -0.921875 5.023438 -1.023438 5.390625 -1.234375 C 5.753906 -1.453125 6.046875 -1.757812 6.265625 -2.15625 C 6.484375 -2.5625 6.59375 -3.035156 6.59375 -3.578125 Z M 6.59375 -3.578125 "/></g></g><g style="fill:#ffffff;fill-opacity:1;"><g transform="translate(110.664782, 222.167885)"><path style="stroke:none" d="M 3.90625 -6.15625 L 2.40625 -6.15625 L 2.40625 0 L 1.21875 0 L 1.21875 -6.15625 L 0.296875 -6.15625 L 0.296875 -7.125 L 1.21875 -7.125 L 1.21875 -7.625 C 1.21875 -8.425781 1.421875 -9.007812 1.828125 -9.375 C 2.242188 -9.75 2.910156 -9.9375 3.828125 -9.9375 L 3.828125 -8.9375 C 3.304688 -8.9375 2.9375 -8.832031 2.71875 -8.625 C 2.507812 -8.425781 2.40625 -8.09375 2.40625 -7.625 L 2.40625 -7.125 L 3.90625 -7.125 Z M 3.90625 -6.15625 "/></g></g><g style="fill:#ffffff;fill-opacity:1;"><g transform="translate(114.44647, 222.167885)"><path style="stroke:none" d="M 2.4375 -6.15625 L 2.4375 -1.953125 C 2.4375 -1.609375 2.507812 -1.363281 2.65625 -1.21875 C 2.8125 -1.070312 3.070312 -1 3.4375 -1 L 4.296875 -1 L 4.296875 0 L 3.234375 0 C 2.578125 0 2.082031 -0.148438 1.75 -0.453125 C 1.425781 -0.753906 1.265625 -1.253906 1.265625 -1.953125 L 1.265625 -6.15625 L 0.34375 -6.15625 L 0.34375 -7.125 L 1.265625 -7.125 L 1.265625 -8.921875 L 2.4375 -8.921875 L 2.4375 -7.125 L 4.296875 -7.125 L 4.296875 -6.15625 Z M 2.4375 -6.15625 "/></g></g><g style="fill:#ffffff;fill-opacity:1;"><g transform="translate(118.683027, 222.167885)"><path style="stroke:none" d="M 1.609375 -8.28125 C 1.390625 -8.28125 1.203125 -8.359375 1.046875 -8.515625 C 0.890625 -8.671875 0.8125 -8.863281 0.8125 -9.09375 C 0.8125 -9.3125 0.890625 -9.5 1.046875 -9.65625 C 1.203125 -9.8125 1.390625 -9.890625 1.609375 -9.890625 C 1.828125 -9.890625 2.007812 -9.8125 2.15625 -9.65625 C 2.3125 -9.5 2.390625 -9.3125 2.390625 -9.09375 C 2.390625 -8.863281 2.3125 -8.671875 2.15625 -8.515625 C 2.007812 -8.359375 1.828125 -8.28125 1.609375 -8.28125 Z M 2.1875 -7.125 L 2.1875 0 L 1 0 L 1 -7.125 Z M 2.1875 -7.125 "/></g></g><g style="fill:#ffffff;fill-opacity:1;"><g transform="translate(121.386053, 222.167885)"><path style="stroke:none" d="M 4.46875 -7.25 C 5.332031 -7.25 6.035156 -6.988281 6.578125 -6.46875 C 7.117188 -5.945312 7.390625 -5.191406 7.390625 -4.203125 L 7.390625 0 L 6.21875 0 L 6.21875 -4.03125 C 6.21875 -4.738281 6.035156 -5.28125 5.671875 -5.65625 C 5.316406 -6.039062 4.832031 -6.234375 4.21875 -6.234375 C 3.59375 -6.234375 3.097656 -6.035156 2.734375 -5.640625 C 2.367188 -5.253906 2.1875 -4.6875 2.1875 -3.9375 L 2.1875 0 L 1 0 L 1 -7.125 L 2.1875 -7.125 L 2.1875 -6.109375 C 2.414062 -6.472656 2.734375 -6.753906 3.140625 -6.953125 C 3.546875 -7.148438 3.988281 -7.25 4.46875 -7.25 Z M 4.46875 -7.25 "/></g></g><g style="fill:#ffffff;fill-opacity:1;"><g transform="translate(129.209508, 222.167885)"><path style="stroke:none" d="M 3.9375 -7.234375 C 4.550781 -7.234375 5.085938 -7.097656 5.546875 -6.828125 C 6.015625 -6.566406 6.363281 -6.234375 6.59375 -5.828125 L 6.59375 -7.125 L 7.78125 -7.125 L 7.78125 0.15625 C 7.78125 0.800781 7.640625 1.378906 7.359375 1.890625 C 7.085938 2.398438 6.691406 2.796875 6.171875 3.078125 C 5.660156 3.367188 5.0625 3.515625 4.375 3.515625 C 3.445312 3.515625 2.671875 3.289062 2.046875 2.84375 C 1.421875 2.40625 1.050781 1.804688 0.9375 1.046875 L 2.109375 1.046875 C 2.234375 1.472656 2.5 1.816406 2.90625 2.078125 C 3.3125 2.347656 3.800781 2.484375 4.375 2.484375 C 5.03125 2.484375 5.5625 2.28125 5.96875 1.875 C 6.382812 1.46875 6.59375 0.894531 6.59375 0.15625 L 6.59375 -1.34375 C 6.351562 -0.925781 6.003906 -0.578125 5.546875 -0.296875 C 5.085938 -0.0234375 4.550781 0.109375 3.9375 0.109375 C 3.300781 0.109375 2.722656 -0.0390625 2.203125 -0.34375 C 1.691406 -0.65625 1.289062 -1.09375 1 -1.65625 C 0.707031 -2.226562 0.5625 -2.875 0.5625 -3.59375 C 0.5625 -4.320312 0.707031 -4.957031 1 -5.5 C 1.289062 -6.050781 1.691406 -6.476562 2.203125 -6.78125 C 2.722656 -7.082031 3.300781 -7.234375 3.9375 -7.234375 Z M 6.59375 -3.578125 C 6.59375 -4.109375 6.484375 -4.570312 6.265625 -4.96875 C 6.046875 -5.375 5.753906 -5.679688 5.390625 -5.890625 C 5.023438 -6.109375 4.617188 -6.21875 4.171875 -6.21875 C 3.734375 -6.21875 3.332031 -6.113281 2.96875 -5.90625 C 2.601562 -5.695312 2.3125 -5.390625 2.09375 -4.984375 C 1.875 -4.585938 1.765625 -4.125 1.765625 -3.59375 C 1.765625 -3.039062 1.875 -2.5625 2.09375 -2.15625 C 2.3125 -1.757812 2.601562 -1.453125 2.96875 -1.234375 C 3.332031 -1.023438 3.734375 -0.921875 4.171875 -0.921875 C 4.617188 -0.921875 5.023438 -1.023438 5.390625 -1.234375 C 5.753906 -1.453125 6.046875 -1.757812 6.265625 -2.15625 C 6.484375 -2.5625 6.59375 -3.035156 6.59375 -3.578125 Z M 6.59375 -3.578125 "/></g></g><g style="fill:#ffffff;fill-opacity:1;"><g transform="translate(137.500821, 222.167885)"><path style="stroke:none" d=""/></g></g><g style="fill:#ffffff;fill-opacity:1;"><g transform="translate(140.476765, 222.167885)"><path style="stroke:none" d="M 7.140625 -7.125 L 2.84375 3.359375 L 1.625 3.359375 L 3.03125 -0.078125 L 0.15625 -7.125 L 1.46875 -7.125 L 3.703125 -1.359375 L 5.921875 -7.125 Z M 7.140625 -7.125 "/></g></g><g style="fill:#ffffff;fill-opacity:1;"><g transform="translate(147.299526, 222.167885)"><path style="stroke:none" d="M 4.109375 0.109375 C 3.441406 0.109375 2.835938 -0.0390625 2.296875 -0.34375 C 1.753906 -0.644531 1.328125 -1.070312 1.015625 -1.625 C 0.710938 -2.1875 0.5625 -2.835938 0.5625 -3.578125 C 0.5625 -4.304688 0.71875 -4.945312 1.03125 -5.5 C 1.351562 -6.0625 1.785156 -6.488281 2.328125 -6.78125 C 2.867188 -7.082031 3.476562 -7.234375 4.15625 -7.234375 C 4.832031 -7.234375 5.441406 -7.082031 5.984375 -6.78125 C 6.535156 -6.488281 6.96875 -6.066406 7.28125 -5.515625 C 7.601562 -4.960938 7.765625 -4.316406 7.765625 -3.578125 C 7.765625 -2.835938 7.597656 -2.1875 7.265625 -1.625 C 6.941406 -1.070312 6.503906 -0.644531 5.953125 -0.34375 C 5.398438 -0.0390625 4.785156 0.109375 4.109375 0.109375 Z M 4.109375 -0.921875 C 4.535156 -0.921875 4.929688 -1.019531 5.296875 -1.21875 C 5.671875 -1.414062 5.972656 -1.710938 6.203125 -2.109375 C 6.429688 -2.515625 6.546875 -3.003906 6.546875 -3.578125 C 6.546875 -4.148438 6.429688 -4.632812 6.203125 -5.03125 C 5.984375 -5.425781 5.691406 -5.722656 5.328125 -5.921875 C 4.960938 -6.117188 4.566406 -6.21875 4.140625 -6.21875 C 3.710938 -6.21875 3.316406 -6.117188 2.953125 -5.921875 C 2.597656 -5.722656 2.3125 -5.425781 2.09375 -5.03125 C 1.875 -4.632812 1.765625 -4.148438 1.765625 -3.578125 C 1.765625 -2.992188 1.867188 -2.503906 2.078125 -2.109375 C 2.296875 -1.710938 2.582031 -1.414062 2.9375 -1.21875 C 3.289062 -1.019531 3.679688 -0.921875 4.109375 -0.921875 Z M 4.109375 -0.921875 "/></g></g><g style="fill:#ffffff;fill-opacity:1;"><g transform="translate(155.122981, 222.167885)"><path style="stroke:none" d="M 7.3125 -7.125 L 7.3125 0 L 6.140625 0 L 6.140625 -1.046875 C 5.910156 -0.679688 5.59375 -0.394531 5.1875 -0.1875 C 4.789062 0.0078125 4.347656 0.109375 3.859375 0.109375 C 3.304688 0.109375 2.804688 -0.00390625 2.359375 -0.234375 C 1.921875 -0.460938 1.570312 -0.804688 1.3125 -1.265625 C 1.0625 -1.734375 0.9375 -2.296875 0.9375 -2.953125 L 0.9375 -7.125 L 2.109375 -7.125 L 2.109375 -3.109375 C 2.109375 -2.398438 2.285156 -1.859375 2.640625 -1.484375 C 2.992188 -1.109375 3.476562 -0.921875 4.09375 -0.921875 C 4.726562 -0.921875 5.226562 -1.113281 5.59375 -1.5 C 5.957031 -1.894531 6.140625 -2.46875 6.140625 -3.21875 L 6.140625 -7.125 Z M 7.3125 -7.125 "/></g></g><g style="fill:#ffffff;fill-opacity:1;"><g transform="translate(162.946437, 222.167885)"><path style="stroke:none" d="M 2.1875 -5.96875 C 2.394531 -6.375 2.691406 -6.6875 3.078125 -6.90625 C 3.460938 -7.132812 3.929688 -7.25 4.484375 -7.25 L 4.484375 -6.03125 L 4.171875 -6.03125 C 2.847656 -6.03125 2.1875 -5.3125 2.1875 -3.875 L 2.1875 0 L 1 0 L 1 -7.125 L 2.1875 -7.125 Z M 2.1875 -5.96875 "/></g></g><g style="fill:#ffffff;fill-opacity:1;"><g transform="translate(167.299952, 222.167885)"><path style="stroke:none" d=""/></g></g><g style="fill:#ffffff;fill-opacity:1;"><g transform="translate(170.275896, 222.167885)"><path style="stroke:none" d="M 2.1875 -5.8125 C 2.414062 -6.21875 2.757812 -6.554688 3.21875 -6.828125 C 3.6875 -7.097656 4.226562 -7.234375 4.84375 -7.234375 C 5.476562 -7.234375 6.050781 -7.082031 6.5625 -6.78125 C 7.082031 -6.476562 7.488281 -6.050781 7.78125 -5.5 C 8.082031 -4.957031 8.234375 -4.320312 8.234375 -3.59375 C 8.234375 -2.875 8.082031 -2.226562 7.78125 -1.65625 C 7.488281 -1.09375 7.082031 -0.65625 6.5625 -0.34375 C 6.050781 -0.0390625 5.476562 0.109375 4.84375 0.109375 C 4.238281 0.109375 3.703125 -0.0234375 3.234375 -0.296875 C 2.773438 -0.566406 2.425781 -0.90625 2.1875 -1.3125 L 2.1875 3.375 L 1 3.375 L 1 -7.125 L 2.1875 -7.125 Z M 7.015625 -3.59375 C 7.015625 -4.125 6.90625 -4.585938 6.6875 -4.984375 C 6.476562 -5.390625 6.1875 -5.695312 5.8125 -5.90625 C 5.445312 -6.113281 5.046875 -6.21875 4.609375 -6.21875 C 4.171875 -6.21875 3.765625 -6.109375 3.390625 -5.890625 C 3.023438 -5.679688 2.734375 -5.375 2.515625 -4.96875 C 2.296875 -4.570312 2.1875 -4.109375 2.1875 -3.578125 C 2.1875 -3.035156 2.296875 -2.5625 2.515625 -2.15625 C 2.734375 -1.757812 3.023438 -1.453125 3.390625 -1.234375 C 3.765625 -1.023438 4.171875 -0.921875 4.609375 -0.921875 C 5.046875 -0.921875 5.445312 -1.023438 5.8125 -1.234375 C 6.1875 -1.453125 6.476562 -1.757812 6.6875 -2.15625 C 6.90625 -2.5625 7.015625 -3.039062 7.015625 -3.59375 Z M 7.015625 -3.59375 "/></g></g><g style="fill:#ffffff;fill-opacity:1;"><g transform="translate(178.567209, 222.167885)"><path style="stroke:none" d="M 7.5 -3.828125 C 7.5 -3.609375 7.488281 -3.375 7.46875 -3.125 L 1.765625 -3.125 C 1.804688 -2.414062 2.046875 -1.863281 2.484375 -1.46875 C 2.921875 -1.082031 3.453125 -0.890625 4.078125 -0.890625 C 4.585938 -0.890625 5.015625 -1.003906 5.359375 -1.234375 C 5.703125 -1.472656 5.941406 -1.796875 6.078125 -2.203125 L 7.359375 -2.203125 C 7.171875 -1.515625 6.789062 -0.957031 6.21875 -0.53125 C 5.644531 -0.101562 4.929688 0.109375 4.078125 0.109375 C 3.398438 0.109375 2.796875 -0.0390625 2.265625 -0.34375 C 1.734375 -0.644531 1.316406 -1.070312 1.015625 -1.625 C 0.710938 -2.1875 0.5625 -2.835938 0.5625 -3.578125 C 0.5625 -4.316406 0.707031 -4.960938 1 -5.515625 C 1.289062 -6.066406 1.703125 -6.488281 2.234375 -6.78125 C 2.773438 -7.082031 3.390625 -7.234375 4.078125 -7.234375 C 4.753906 -7.234375 5.351562 -7.085938 5.875 -6.796875 C 6.394531 -6.503906 6.796875 -6.097656 7.078125 -5.578125 C 7.359375 -5.066406 7.5 -4.484375 7.5 -3.828125 Z M 6.28125 -4.078125 C 6.28125 -4.535156 6.179688 -4.925781 5.984375 -5.25 C 5.785156 -5.570312 5.515625 -5.816406 5.171875 -5.984375 C 4.828125 -6.148438 4.445312 -6.234375 4.03125 -6.234375 C 3.4375 -6.234375 2.925781 -6.039062 2.5 -5.65625 C 2.082031 -5.28125 1.84375 -4.753906 1.78125 -4.078125 Z M 6.28125 -4.078125 "/></g></g><g style="fill:#ffffff;fill-opacity:1;"><g transform="translate(186.130746, 222.167885)"><path style="stroke:none" d="M 2.1875 -5.96875 C 2.394531 -6.375 2.691406 -6.6875 3.078125 -6.90625 C 3.460938 -7.132812 3.929688 -7.25 4.484375 -7.25 L 4.484375 -6.03125 L 4.171875 -6.03125 C 2.847656 -6.03125 2.1875 -5.3125 2.1875 -3.875 L 2.1875 0 L 1 0 L 1 -7.125 L 2.1875 -7.125 Z M 2.1875 -5.96875 "/></g></g><g style="fill:#ffffff;fill-opacity:1;"><g transform="translate(190.484261, 222.167885)"><path style="stroke:none" d="M 3.90625 -6.15625 L 2.40625 -6.15625 L 2.40625 0 L 1.21875 0 L 1.21875 -6.15625 L 0.296875 -6.15625 L 0.296875 -7.125 L 1.21875 -7.125 L 1.21875 -7.625 C 1.21875 -8.425781 1.421875 -9.007812 1.828125 -9.375 C 2.242188 -9.75 2.910156 -9.9375 3.828125 -9.9375 L 3.828125 -8.9375 C 3.304688 -8.9375 2.9375 -8.832031 2.71875 -8.625 C 2.507812 -8.425781 2.40625 -8.09375 2.40625 -7.625 L 2.40625 -7.125 L 3.90625 -7.125 Z M 3.90625 -6.15625 "/></g></g><g style="fill:#ffffff;fill-opacity:1;"><g transform="translate(194.26595, 222.167885)"><path style="stroke:none" d="M 7.5 -3.828125 C 7.5 -3.609375 7.488281 -3.375 7.46875 -3.125 L 1.765625 -3.125 C 1.804688 -2.414062 2.046875 -1.863281 2.484375 -1.46875 C 2.921875 -1.082031 3.453125 -0.890625 4.078125 -0.890625 C 4.585938 -0.890625 5.015625 -1.003906 5.359375 -1.234375 C 5.703125 -1.472656 5.941406 -1.796875 6.078125 -2.203125 L 7.359375 -2.203125 C 7.171875 -1.515625 6.789062 -0.957031 6.21875 -0.53125 C 5.644531 -0.101562 4.929688 0.109375 4.078125 0.109375 C 3.398438 0.109375 2.796875 -0.0390625 2.265625 -0.34375 C 1.734375 -0.644531 1.316406 -1.070312 1.015625 -1.625 C 0.710938 -2.1875 0.5625 -2.835938 0.5625 -3.578125 C 0.5625 -4.316406 0.707031 -4.960938 1 -5.515625 C 1.289062 -6.066406 1.703125 -6.488281 2.234375 -6.78125 C 2.773438 -7.082031 3.390625 -7.234375 4.078125 -7.234375 C 4.753906 -7.234375 5.351562 -7.085938 5.875 -6.796875 C 6.394531 -6.503906 6.796875 -6.097656 7.078125 -5.578125 C 7.359375 -5.066406 7.5 -4.484375 7.5 -3.828125 Z M 6.28125 -4.078125 C 6.28125 -4.535156 6.179688 -4.925781 5.984375 -5.25 C 5.785156 -5.570312 5.515625 -5.816406 5.171875 -5.984375 C 4.828125 -6.148438 4.445312 -6.234375 4.03125 -6.234375 C 3.4375 -6.234375 2.925781 -6.039062 2.5 -5.65625 C 2.082031 -5.28125 1.84375 -4.753906 1.78125 -4.078125 Z M 6.28125 -4.078125 "/></g></g><g style="fill:#ffffff;fill-opacity:1;"><g transform="translate(201.829487, 222.167885)"><path style="stroke:none" d="M 0.5625 -3.578125 C 0.5625 -4.316406 0.707031 -4.957031 1 -5.5 C 1.289062 -6.050781 1.695312 -6.476562 2.21875 -6.78125 C 2.75 -7.082031 3.351562 -7.234375 4.03125 -7.234375 C 4.90625 -7.234375 5.625 -7.019531 6.1875 -6.59375 C 6.757812 -6.175781 7.132812 -5.59375 7.3125 -4.84375 L 6.046875 -4.84375 C 5.921875 -5.269531 5.679688 -5.609375 5.328125 -5.859375 C 4.984375 -6.109375 4.550781 -6.234375 4.03125 -6.234375 C 3.351562 -6.234375 2.804688 -6 2.390625 -5.53125 C 1.972656 -5.070312 1.765625 -4.421875 1.765625 -3.578125 C 1.765625 -2.710938 1.972656 -2.046875 2.390625 -1.578125 C 2.804688 -1.117188 3.351562 -0.890625 4.03125 -0.890625 C 4.550781 -0.890625 4.984375 -1.007812 5.328125 -1.25 C 5.671875 -1.488281 5.910156 -1.832031 6.046875 -2.28125 L 7.3125 -2.28125 C 7.125 -1.5625 6.742188 -0.984375 6.171875 -0.546875 C 5.597656 -0.109375 4.882812 0.109375 4.03125 0.109375 C 3.351562 0.109375 2.75 -0.0390625 2.21875 -0.34375 C 1.695312 -0.644531 1.289062 -1.070312 1 -1.625 C 0.707031 -2.175781 0.5625 -2.828125 0.5625 -3.578125 Z M 0.5625 -3.578125 "/></g></g><g style="fill:#ffffff;fill-opacity:1;"><g transform="translate(209.224075, 222.167885)"><path style="stroke:none" d="M 2.4375 -6.15625 L 2.4375 -1.953125 C 2.4375 -1.609375 2.507812 -1.363281 2.65625 -1.21875 C 2.8125 -1.070312 3.070312 -1 3.4375 -1 L 4.296875 -1 L 4.296875 0 L 3.234375 0 C 2.578125 0 2.082031 -0.148438 1.75 -0.453125 C 1.425781 -0.753906 1.265625 -1.253906 1.265625 -1.953125 L 1.265625 -6.15625 L 0.34375 -6.15625 L 0.34375 -7.125 L 1.265625 -7.125 L 1.265625 -8.921875 L 2.4375 -8.921875 L 2.4375 -7.125 L 4.296875 -7.125 L 4.296875 -6.15625 Z M 2.4375 -6.15625 "/></g></g><g style="fill:#ffffff;fill-opacity:1;"><g transform="translate(213.460632, 222.167885)"><path style="stroke:none" d=""/></g></g><g style="fill:#ffffff;fill-opacity:1;"><g transform="translate(216.436576, 222.167885)"><path style="stroke:none" d="M 2.1875 -9.625 L 2.1875 0 L 1 0 L 1 -9.625 Z M 2.1875 -9.625 "/></g></g><g style="fill:#ffffff;fill-opacity:1;"><g transform="translate(219.139601, 222.167885)"><path style="stroke:none" d="M 4.109375 0.109375 C 3.441406 0.109375 2.835938 -0.0390625 2.296875 -0.34375 C 1.753906 -0.644531 1.328125 -1.070312 1.015625 -1.625 C 0.710938 -2.1875 0.5625 -2.835938 0.5625 -3.578125 C 0.5625 -4.304688 0.71875 -4.945312 1.03125 -5.5 C 1.351562 -6.0625 1.785156 -6.488281 2.328125 -6.78125 C 2.867188 -7.082031 3.476562 -7.234375 4.15625 -7.234375 C 4.832031 -7.234375 5.441406 -7.082031 5.984375 -6.78125 C 6.535156 -6.488281 6.96875 -6.066406 7.28125 -5.515625 C 7.601562 -4.960938 7.765625 -4.316406 7.765625 -3.578125 C 7.765625 -2.835938 7.597656 -2.1875 7.265625 -1.625 C 6.941406 -1.070312 6.503906 -0.644531 5.953125 -0.34375 C 5.398438 -0.0390625 4.785156 0.109375 4.109375 0.109375 Z M 4.109375 -0.921875 C 4.535156 -0.921875 4.929688 -1.019531 5.296875 -1.21875 C 5.671875 -1.414062 5.972656 -1.710938 6.203125 -2.109375 C 6.429688 -2.515625 6.546875 -3.003906 6.546875 -3.578125 C 6.546875 -4.148438 6.429688 -4.632812 6.203125 -5.03125 C 5.984375 -5.425781 5.691406 -5.722656 5.328125 -5.921875 C 4.960938 -6.117188 4.566406 -6.21875 4.140625 -6.21875 C 3.710938 -6.21875 3.316406 -6.117188 2.953125 -5.921875 C 2.597656 -5.722656 2.3125 -5.425781 2.09375 -5.03125 C 1.875 -4.632812 1.765625 -4.148438 1.765625 -3.578125 C 1.765625 -2.992188 1.867188 -2.503906 2.078125 -2.109375 C 2.296875 -1.710938 2.582031 -1.414062 2.9375 -1.21875 C 3.289062 -1.019531 3.679688 -0.921875 4.109375 -0.921875 Z M 4.109375 -0.921875 "/></g></g><g style="fill:#ffffff;fill-opacity:1;"><g transform="translate(226.963057, 222.167885)"><path style="stroke:none" d="M 3.65625 -1.09375 L 5.859375 -7.125 L 7.125 -7.125 L 4.328125 0 L 2.953125 0 L 0.15625 -7.125 L 1.4375 -7.125 Z M 3.65625 -1.09375 "/></g></g><g style="fill:#ffffff;fill-opacity:1;"><g transform="translate(233.759828, 222.167885)"><path style="stroke:none" d="M 7.5 -3.828125 C 7.5 -3.609375 7.488281 -3.375 7.46875 -3.125 L 1.765625 -3.125 C 1.804688 -2.414062 2.046875 -1.863281 2.484375 -1.46875 C 2.921875 -1.082031 3.453125 -0.890625 4.078125 -0.890625 C 4.585938 -0.890625 5.015625 -1.003906 5.359375 -1.234375 C 5.703125 -1.472656 5.941406 -1.796875 6.078125 -2.203125 L 7.359375 -2.203125 C 7.171875 -1.515625 6.789062 -0.957031 6.21875 -0.53125 C 5.644531 -0.101562 4.929688 0.109375 4.078125 0.109375 C 3.398438 0.109375 2.796875 -0.0390625 2.265625 -0.34375 C 1.734375 -0.644531 1.316406 -1.070312 1.015625 -1.625 C 0.710938 -2.1875 0.5625 -2.835938 0.5625 -3.578125 C 0.5625 -4.316406 0.707031 -4.960938 1 -5.515625 C 1.289062 -6.066406 1.703125 -6.488281 2.234375 -6.78125 C 2.773438 -7.082031 3.390625 -7.234375 4.078125 -7.234375 C 4.753906 -7.234375 5.351562 -7.085938 5.875 -6.796875 C 6.394531 -6.503906 6.796875 -6.097656 7.078125 -5.578125 C 7.359375 -5.066406 7.5 -4.484375 7.5 -3.828125 Z M 6.28125 -4.078125 C 6.28125 -4.535156 6.179688 -4.925781 5.984375 -5.25 C 5.785156 -5.570312 5.515625 -5.816406 5.171875 -5.984375 C 4.828125 -6.148438 4.445312 -6.234375 4.03125 -6.234375 C 3.4375 -6.234375 2.925781 -6.039062 2.5 -5.65625 C 2.082031 -5.28125 1.84375 -4.753906 1.78125 -4.078125 Z M 6.28125 -4.078125 "/></g></g><g style="fill:#ffffff;fill-opacity:1;"><g transform="translate(241.323365, 222.167885)"><path style="stroke:none" d=""/></g></g><g style="fill:#ffffff;fill-opacity:1;"><g transform="translate(244.29931, 222.167885)"><path style="stroke:none" d="M 3.515625 0.109375 C 2.972656 0.109375 2.484375 0.0195312 2.046875 -0.15625 C 1.617188 -0.34375 1.28125 -0.601562 1.03125 -0.9375 C 0.78125 -1.269531 0.640625 -1.65625 0.609375 -2.09375 L 1.828125 -2.09375 C 1.867188 -1.738281 2.035156 -1.445312 2.328125 -1.21875 C 2.628906 -1 3.023438 -0.890625 3.515625 -0.890625 C 3.960938 -0.890625 4.316406 -0.988281 4.578125 -1.1875 C 4.835938 -1.382812 4.96875 -1.632812 4.96875 -1.9375 C 4.96875 -2.25 4.828125 -2.476562 4.546875 -2.625 C 4.273438 -2.78125 3.847656 -2.929688 3.265625 -3.078125 C 2.734375 -3.210938 2.300781 -3.351562 1.96875 -3.5 C 1.632812 -3.644531 1.347656 -3.859375 1.109375 -4.140625 C 0.867188 -4.421875 0.75 -4.789062 0.75 -5.25 C 0.75 -5.613281 0.859375 -5.945312 1.078125 -6.25 C 1.296875 -6.550781 1.601562 -6.789062 2 -6.96875 C 2.394531 -7.144531 2.847656 -7.234375 3.359375 -7.234375 C 4.148438 -7.234375 4.785156 -7.035156 5.265625 -6.640625 C 5.753906 -6.242188 6.019531 -5.695312 6.0625 -5 L 4.875 -5 C 4.851562 -5.375 4.703125 -5.671875 4.421875 -5.890625 C 4.148438 -6.117188 3.785156 -6.234375 3.328125 -6.234375 C 2.898438 -6.234375 2.5625 -6.140625 2.3125 -5.953125 C 2.0625 -5.773438 1.9375 -5.539062 1.9375 -5.25 C 1.9375 -5.019531 2.007812 -4.828125 2.15625 -4.671875 C 2.3125 -4.523438 2.503906 -4.40625 2.734375 -4.3125 C 2.960938 -4.21875 3.28125 -4.113281 3.6875 -4 C 4.195312 -3.863281 4.613281 -3.726562 4.9375 -3.59375 C 5.257812 -3.457031 5.535156 -3.253906 5.765625 -2.984375 C 5.992188 -2.722656 6.113281 -2.375 6.125 -1.9375 C 6.125 -1.550781 6.015625 -1.203125 5.796875 -0.890625 C 5.578125 -0.578125 5.269531 -0.332031 4.875 -0.15625 C 4.488281 0.0195312 4.035156 0.109375 3.515625 0.109375 Z M 3.515625 0.109375 "/></g></g><g style="fill:#ffffff;fill-opacity:1;"><g transform="translate(250.589234, 222.167885)"><path style="stroke:none" d="M 2.4375 -6.15625 L 2.4375 -1.953125 C 2.4375 -1.609375 2.507812 -1.363281 2.65625 -1.21875 C 2.8125 -1.070312 3.070312 -1 3.4375 -1 L 4.296875 -1 L 4.296875 0 L 3.234375 0 C 2.578125 0 2.082031 -0.148438 1.75 -0.453125 C 1.425781 -0.753906 1.265625 -1.253906 1.265625 -1.953125 L 1.265625 -6.15625 L 0.34375 -6.15625 L 0.34375 -7.125 L 1.265625 -7.125 L 1.265625 -8.921875 L 2.4375 -8.921875 L 2.4375 -7.125 L 4.296875 -7.125 L 4.296875 -6.15625 Z M 2.4375 -6.15625 "/></g></g><g style="fill:#ffffff;fill-opacity:1;"><g transform="translate(254.825791, 222.167885)"><path style="stroke:none" d="M 4.109375 0.109375 C 3.441406 0.109375 2.835938 -0.0390625 2.296875 -0.34375 C 1.753906 -0.644531 1.328125 -1.070312 1.015625 -1.625 C 0.710938 -2.1875 0.5625 -2.835938 0.5625 -3.578125 C 0.5625 -4.304688 0.71875 -4.945312 1.03125 -5.5 C 1.351562 -6.0625 1.785156 -6.488281 2.328125 -6.78125 C 2.867188 -7.082031 3.476562 -7.234375 4.15625 -7.234375 C 4.832031 -7.234375 5.441406 -7.082031 5.984375 -6.78125 C 6.535156 -6.488281 6.96875 -6.066406 7.28125 -5.515625 C 7.601562 -4.960938 7.765625 -4.316406 7.765625 -3.578125 C 7.765625 -2.835938 7.597656 -2.1875 7.265625 -1.625 C 6.941406 -1.070312 6.503906 -0.644531 5.953125 -0.34375 C 5.398438 -0.0390625 4.785156 0.109375 4.109375 0.109375 Z M 4.109375 -0.921875 C 4.535156 -0.921875 4.929688 -1.019531 5.296875 -1.21875 C 5.671875 -1.414062 5.972656 -1.710938 6.203125 -2.109375 C 6.429688 -2.515625 6.546875 -3.003906 6.546875 -3.578125 C 6.546875 -4.148438 6.429688 -4.632812 6.203125 -5.03125 C 5.984375 -5.425781 5.691406 -5.722656 5.328125 -5.921875 C 4.960938 -6.117188 4.566406 -6.21875 4.140625 -6.21875 C 3.710938 -6.21875 3.316406 -6.117188 2.953125 -5.921875 C 2.597656 -5.722656 2.3125 -5.425781 2.09375 -5.03125 C 1.875 -4.632812 1.765625 -4.148438 1.765625 -3.578125 C 1.765625 -2.992188 1.867188 -2.503906 2.078125 -2.109375 C 2.296875 -1.710938 2.582031 -1.414062 2.9375 -1.21875 C 3.289062 -1.019531 3.679688 -0.921875 4.109375 -0.921875 Z M 4.109375 -0.921875 "/></g></g><g style="fill:#ffffff;fill-opacity:1;"><g transform="translate(262.649246, 222.167885)"><path style="stroke:none" d="M 2.1875 -5.96875 C 2.394531 -6.375 2.691406 -6.6875 3.078125 -6.90625 C 3.460938 -7.132812 3.929688 -7.25 4.484375 -7.25 L 4.484375 -6.03125 L 4.171875 -6.03125 C 2.847656 -6.03125 2.1875 -5.3125 2.1875 -3.875 L 2.1875 0 L 1 0 L 1 -7.125 L 2.1875 -7.125 Z M 2.1875 -5.96875 "/></g></g><g style="fill:#ffffff;fill-opacity:1;"><g transform="translate(267.002761, 222.167885)"><path style="stroke:none" d="M 7.140625 -7.125 L 2.84375 3.359375 L 1.625 3.359375 L 3.03125 -0.078125 L 0.15625 -7.125 L 1.46875 -7.125 L 3.703125 -1.359375 L 5.921875 -7.125 Z M 7.140625 -7.125 "/></g></g></g></svg>