<svg width="28" height="32" viewBox="0 0 28 32" fill="none" xmlns="http://www.w3.org/2000/svg">
<path fill-rule="evenodd" clip-rule="evenodd" d="M1.19277 4.2555C4.69559 3.84994 7.74952 2.29262 10.0861 0.625H17.9143C20.2509 2.29262 23.3048 3.84994 26.8076 4.2555C27.1245 4.29219 27.3608 4.55731 27.3608 4.87625V15.9827C27.3608 23.5148 19.7141 29.8439 14.0002 31.375C8.28627 29.8439 0.639648 23.5148 0.639648 15.9828V4.87625C0.639648 4.55731 0.875899 4.29219 1.19277 4.2555ZM2.51459 5.95412V15.9828C2.51459 16.8341 2.6329 17.6779 2.85227 18.5C4.1434 23.3384 9.24134 27.9394 13.9995 29.423C16.9785 28.4896 19.991 26.3253 22.015 24.0435C23.9876 21.8194 25.4858 19.0189 25.4858 15.9828V5.95412C22.5534 5.42506 19.7935 4.17537 17.3261 2.5H10.6743C8.20696 4.17537 5.44702 5.42506 2.51459 5.95412ZM3.76459 6.96994V15.9828C3.76459 16.7246 3.8689 17.4615 4.06002 18.1777C5.21271 22.4976 9.78571 26.64 13.9984 28.1065C16.6192 27.1884 19.2712 25.2531 21.0798 23.2141C22.8428 21.2264 24.2358 18.7014 24.2358 15.9828V6.96994C21.6347 6.35462 19.179 5.21894 16.9468 3.75H11.0536C8.82146 5.21894 6.36565 6.35462 3.76459 6.96994ZM16.0024 8.89581H11.9981C11.826 8.89581 11.6856 9.03619 11.6856 9.20831V12.377H8.5169C8.34477 12.377 8.2044 12.5174 8.2044 12.6895V16.6938C8.2044 16.8659 8.34477 17.0063 8.5169 17.0063H11.6856V20.1749C11.6856 20.3471 11.826 20.4874 11.9981 20.4874H16.0024C16.1745 20.4874 16.3149 20.3471 16.3149 20.1749V17.0063H19.4835C19.6556 17.0063 19.796 16.8659 19.796 16.6938V12.6895C19.796 12.5174 19.6556 12.377 19.4835 12.377H16.3149V9.20831C16.3148 9.03619 16.1745 8.89581 16.0024 8.89581Z" fill="#E92063"/>
</svg>
