<svg width="32" height="32" viewBox="0 0 32 32" fill="none" xmlns="http://www.w3.org/2000/svg">
<path d="M0 29.3333H18.6667V31.9999H0V29.3333Z" fill="#F5821E"/>
<path d="M15.9998 26.645C15.9998 26.2914 15.8594 25.9522 15.6093 25.7022C15.3593 25.4521 15.0201 25.3116 14.6665 25.3116H3.99984C3.64622 25.3116 3.30708 25.4521 3.05703 25.7022C2.80698 25.9522 2.6665 26.2914 2.6665 26.645V28H15.9998V26.645Z" fill="#F5821E"/>
<path d="M18.142 15.7436C17.5208 16.4057 16.9998 17.1552 16.5957 17.9683L27.5704 28.943C27.8204 29.1929 28.1595 29.3333 28.513 29.3333C28.8666 29.3333 29.2057 29.1929 29.4557 28.943L31.3414 27.0573C31.4652 26.9335 31.5634 26.7865 31.6304 26.6247C31.6974 26.4629 31.7319 26.2896 31.7319 26.1145C31.7319 25.9394 31.6974 25.766 31.6304 25.6042C31.5634 25.4424 31.4652 25.2954 31.3414 25.1716L20.3667 14.2C19.5522 14.6005 18.8023 15.1209 18.142 15.7436Z" fill="#F5821E"/>
<path d="M11.5424 9.14395C10.5341 10.0797 9.36689 10.828 8.0957 11.3536L14.987 18.245C15.5174 16.976 16.2664 15.8099 17.2 14.8C18.2084 13.8643 19.3756 13.1159 20.6467 12.59L13.755 5.69995C13.2245 6.96847 12.4756 8.13413 11.5424 9.14395Z" fill="#F5821E"/>
<path d="M16.2543 0.660647L14.3689 2.54598C13.8483 3.0666 13.8483 3.91069 14.3689 4.43131L21.9103 11.9726C22.4309 12.4933 23.275 12.4933 23.7956 11.9726L25.6809 10.0873C26.2016 9.56669 26.2016 8.7226 25.6809 8.20198L18.1396 0.660647C17.619 0.140027 16.7749 0.140027 16.2543 0.660647Z" fill="#F5821E"/>
<path d="M4.9403 11.9722L3.05497 13.8575C2.53435 14.3781 2.53435 15.2222 3.05497 15.7428L10.5963 23.2842C11.1169 23.8048 11.961 23.8048 12.4816 23.2842L14.367 21.3988C14.8876 20.8782 14.8876 20.0341 14.367 19.5135L6.82564 11.9722C6.30502 11.4516 5.46093 11.4516 4.9403 11.9722Z" fill="#F5821E"/>
</svg>
