<svg width="32" height="32" viewBox="0 0 32 32" fill="none" xmlns="http://www.w3.org/2000/svg">
<g clip-path="url(#clip0_135_997)">
<path d="M7.5625 3.875H14.4375C14.9552 3.875 15.375 3.45525 15.375 2.9375V1.25C15.375 0.559625 14.8154 0 14.125 0H7.875C7.18463 0 6.625 0.559625 6.625 1.25V2.9375C6.625 3.45525 7.04475 3.875 7.5625 3.875Z" fill="#E92063"/>
<path d="M31.4507 28.7992L28.799 26.1476C28.0668 25.4153 26.8796 25.4153 26.1473 26.1476C25.4151 26.8798 25.4151 28.067 26.1473 28.7992L28.799 31.4509C29.5313 32.1831 30.7185 32.1831 31.4506 31.4509C32.183 30.7186 32.183 29.5314 31.4507 28.7992Z" fill="#E92063"/>
<path d="M25.3267 19.0764C25.3267 15.6247 22.5285 12.8264 19.0767 12.8264C15.6249 12.8264 12.8267 15.6247 12.8267 19.0764C12.8267 22.5282 15.6249 25.3264 19.0767 25.3264C20.4643 25.3264 21.7462 24.8739 22.7832 24.1088L24.2429 25.5685C24.4001 25.3018 24.5931 25.0505 24.8219 24.8217C25.0486 24.595 25.2994 24.4013 25.5682 24.2422L24.109 22.783C24.8742 21.7459 25.3267 20.4641 25.3267 19.0764ZM18.8557 21.5071C18.4896 21.8732 17.896 21.8732 17.5299 21.5071L15.7621 19.7394C15.396 19.3732 15.396 18.7797 15.7621 18.4135C16.1282 18.0474 16.7218 18.0474 17.0879 18.4135L18.1928 19.5184L21.0654 16.6458C21.4315 16.2797 22.0251 16.2797 22.3912 16.6458C22.7573 17.0119 22.7573 17.6055 22.3912 17.9716L18.8557 21.5071Z" fill="#E92063"/>
<path d="M18.2362 27.1583C18.2446 27.2086 18.25 27.2599 18.25 27.3126C18.25 27.8303 17.8302 28.2501 17.3125 28.2501H4.6875C4.16975 28.2501 3.75 27.8303 3.75 27.3126C3.75 26.7948 4.16975 26.3751 4.6875 26.3751H15.5087C14.5666 25.9126 13.7265 25.2731 13.0321 24.5001H4.6875C4.16975 24.5001 3.75 24.0803 3.75 23.5626C3.75 23.0448 4.16975 22.6251 4.6875 22.6251H11.7684C11.4813 22.0361 11.2634 21.4076 11.1251 20.7501H4.6875C4.16975 20.7501 3.75 20.3303 3.75 19.8126C3.75 19.2948 4.16975 18.8751 4.6875 18.8751H10.9541C10.9699 18.2287 11.0619 17.6009 11.2208 17.0001H4.6875C4.16975 17.0001 3.75 16.5803 3.75 16.0626C3.75 15.5448 4.16975 15.1251 4.6875 15.1251H11.9793C12.3671 14.4313 12.8536 13.7999 13.4198 13.2501H4.6875C4.16975 13.2501 3.75 12.8303 3.75 12.3126C3.75 11.7948 4.16975 11.3751 4.6875 11.3751H16.4859C17.2999 11.1006 18.1711 10.9516 19.0765 10.9516C20.1066 10.9516 21.0924 11.1447 22 11.4959V4.8125C22 3.26169 20.7383 2 19.1875 2H17.25V2.9375C17.25 4.48831 15.9883 5.75 14.4375 5.75H7.5625C6.01169 5.75 4.75 4.48831 4.75 2.9375V2H2.8125C1.26169 2 0 3.26169 0 4.8125V29.1875C0 30.7383 1.26169 32 2.8125 32H19.1875C20.7383 32 22 30.7383 22 29.1875V26.6571C21.0924 27.0083 20.1066 27.2014 19.0765 27.2014C18.7928 27.2015 18.5125 27.1868 18.2362 27.1583ZM4.6875 7.625H17.3125C17.8302 7.625 18.25 8.04475 18.25 8.5625C18.25 9.08025 17.8302 9.5 17.3125 9.5H4.6875C4.16975 9.5 3.75 9.08025 3.75 8.5625C3.75 8.04475 4.16975 7.625 4.6875 7.625Z" fill="#E92063"/>
</g>
<defs>
<clipPath id="clip0_135_997">
<rect width="32" height="32" fill="white"/>
</clipPath>
</defs>
</svg>
